<svg xmlns="http://www.w3.org/2000/svg" width="249.976" height="38.008"><g data-name="Group 187" fill="#005caf"><path data-name="Path 1" d="M16.847 0h8.563L12.74 18.97l8.421 12.668h5.238v6.371h-9.552L-.001 18.899Z"/><path data-name="Path 2" d="M42.19 0h-8.574L46.29 18.97l-8.421 12.668h-5.24v6.371h9.561l16.846-19.11Z"/><path data-name="Path 3" d="M32.697 27.396V18.97h7.3l-5.241-8.425H24.278l-5.24 8.425h7.292v8.426Z"/><path data-name="Path 4" d="M51.291 32.7a4.766 4.766 0 1 0 4.768-4.77 4.768 4.768 0 0 0-4.765 4.77m.478 0a4.289 4.289 0 1 1 4.287 4.289 4.3 4.3 0 0 1-4.287-4.289"/><path data-name="Path 5" d="M54.112 30.326h2.3a2.493 2.493 0 0 1 .933.149 1.011 1.011 0 0 1 .706 1.02 1.037 1.037 0 0 1-.187.634 1.21 1.21 0 0 1-.528.4 1.045 1.045 0 0 1 .44.276.831.831 0 0 1 .169.541l.025.573a1.407 1.407 0 0 0 .052.377.361.361 0 0 0 .215.268v.094h-.836a.683.683 0 0 1-.054-.145 2.15 2.15 0 0 1-.028-.341l-.057-.723a.6.6 0 0 0-.354-.57 1.742 1.742 0 0 0-.6-.076h-1.512v1.853h-.684Zm2.228 1.986a1.4 1.4 0 0 0 .745-.164.738.738 0 0 0-.108-1.22 1.449 1.449 0 0 0-.545-.089h-1.636v1.473Z"/><path data-name="Path 6" d="M143.51 17.31v5.124h3.422v4.788h-6.623V10.801h6.623v3.21h6.708V5.672h-20.035v26.683h20.035V17.31Z"/><path data-name="Path 7" d="m100.446 28.909-8.235-9.9 8.235-9.9ZM95.495 5.672l-8.2 9.859V5.672h-6.7v26.684h6.7v-9.884l8.218 9.88h11.642V5.672Z"/><path data-name="Path 8" d="M123.721 5.673v13.114l-6.615-13.124v.01h-6.709v26.683h6.709V19.232l6.613 13.117v-.029.036h6.705V5.673Z"/><path data-name="Path 9" d="m243.103 5.673-4.92 9.73-4.9-9.73h-10.088v13.114l-6.618-13.124v.01h-6.711v26.683h6.711V19.232l6.618 13.117v.007h6.71V12.582l4.886 9.665v10.109h6.706v-9.929l8.479-16.754Z"/><path data-name="Path 10" d="M207.621 19.016a15.028 15.028 0 0 0-22-13.345h-25.5v5.13h6.7v21.555h6.708V10.801h6.444a15.039 15.039 0 0 0 .051 16.485h-1.592v5h11.62V27.25h-1.971l-4.539-8.279 4.539-8.281h9.068l4.53 8.281-4.53 8.279H195v5.034h11.66v-5h-1.518a14.972 14.972 0 0 0 2.479-8.27"/></g></svg>